<svg width="16" height="16" viewBox="0 0 16 16" fill="none" xmlns="http://www.w3.org/2000/svg">
<path d="M3.99998 4H4.99998H5.03123C5.28513 4.01172 5.54294 4.12891 5.71873 4.3125L7.99998 6.59375L10.3125 4.3125C10.5781 4.08203 10.7578 4.00781 11 4H12V5C12 5.28516 11.9648 5.55078 11.75 5.75L9.46873 8.03125L11.7187 10.2812C11.9062 10.4688 12 10.7344 12 11V12H11C10.7344 12 10.4687 11.9062 10.2812 11.7188L7.99998 9.4375L5.71873 11.7188C5.53123 11.9062 5.2656 12 4.99998 12H3.99998V11C3.99998 10.7344 4.09373 10.4688 4.28123 10.2812L6.56248 8.03125L4.28123 5.75C4.07029 5.55469 3.97654 5.28125 3.99998 5V4Z" fill="white"/>
</svg>
